<?xml version="1.0" encoding="utf-8"?>
<!-- Generator: Adobe Illustrator 26.5.0, SVG Export Plug-In . SVG Version: 6.00 Build 0)  -->
<svg version="1.1" id="Layer_1" xmlns="http://www.w3.org/2000/svg" xmlns:xlink="http://www.w3.org/1999/xlink" x="0px" y="0px"
	 viewBox="0 0 512 512" style="enable-background:new 0 0 512 512;" xml:space="preserve">
<style type="text/css">
	.st0{display:none;}
	.st1{display:inline;}
	.st2{clip-path:url(#SVGID_00000175321212820895719560000004455266256229120394_);}
	.st3{fill:none;stroke:#000000;stroke-width:20;stroke-linecap:round;stroke-linejoin:round;stroke-miterlimit:13.3333;}
</style>
<g id="OP" class="st0">
	<path class="st1" d="M178.4,144.1h17.1v17.1c0,7.6,6.1,13.7,13.7,13.7h26.4c7.6,0,13.7-6.1,13.7-13.7v-17.1h17.1
		c7.6,0,13.7-6.1,13.7-13.7V104c0-7.6-6.1-13.7-13.7-13.7h-17.1V73.2c0-7.6-6.1-13.7-13.7-13.7h-26.4c-7.6,0-13.7,6.1-13.7,13.7
		v17.1h-17.1c-7.6,0-13.7,6.1-13.7,13.7v26.4C164.7,138,170.9,144.1,178.4,144.1L178.4,144.1z M183.3,108.9h21.5
		c5.1,0,9.3-4.2,9.3-9.3V78.1h16.7v21.5c0,5.1,4.2,9.3,9.3,9.3c0,0,0,0,0,0h21.5v16.6h-21.5c-5.1,0-9.3,4.2-9.3,9.3v21.5h-16.6
		v-21.5c0-5.1-4.2-9.3-9.3-9.3h-21.5L183.3,108.9z"/>
	<path class="st1" d="M361.1,371.9h11.3c5,0,9.1,4.1,9.1,9.1c0,5.1,4.2,9.3,9.3,9.3c5.1,0,9.3-4.2,9.3-9.3
		c0-13.9-10.3-25.5-24.1-27.3v-4.3c0-5.1-4.2-9.3-9.3-9.3c-5.1,0-9.3,4.2-9.3,9.3v4.3c-13.7,1.8-24,13.5-24.1,27.3v1
		c0,12.3,8.2,23.2,20,26.6l21.5,6.2c3.9,1.1,6.6,4.7,6.6,8.8v1c0,5-4.1,9.1-9.1,9.1h-11.3c-5,0-9.1-4.1-9.1-9.1
		c0-5.1-4.2-9.3-9.3-9.3c-5.1,0-9.3,4.2-9.3,9.3c0,13.9,10.3,25.5,24.1,27.3v4.3c0,5.1,4.2,9.3,9.3,9.3s9.3-4.2,9.3-9.3v-4.3
		c13.7-1.8,24-13.5,24.1-27.3v-1c0-12.3-8.2-23.2-20.1-26.6l-21.5-6.2c-3.9-1.1-6.6-4.7-6.6-8.8v-1C352,376,356.1,371.9,361.1,371.9
		L361.1,371.9z"/>
	<path class="st1" d="M395.4,306V46.4c0-21.4-17.3-38.8-38.7-38.8H85.8C64.4,7.6,47.1,25,47,46.4v319c0.1,2.5,1,4.8,2.7,6.6
		l77.5,77.5c1.7,1.7,4.1,2.7,6.6,2.7h144.4c27.1,48.9,88.8,66.5,137.7,39.4c48.9-27.1,66.5-88.8,39.4-137.7
		C442.5,330.7,420.9,313.5,395.4,306L395.4,306z M85.8,26.2h270.9c11.1,0,20.1,9.1,20.1,20.2v255.9c-4.4-0.4-8.3-0.6-10-0.6
		c-55.8-0.1-101.2,45-101.3,100.9c0,10.5,1.6,21,4.8,31H143.2v-38.8c0-21.4-17.4-38.8-38.8-38.8c0,0,0,0,0,0H65.6V46.4
		C65.6,35.2,74.7,26.2,85.8,26.2L85.8,26.2z M78.8,374.7h25.6c11.2,0,20.2,9,20.2,20.2l0,0v25.6L78.8,374.7z M366.8,485.7
		c-45.6,0-82.6-37-82.6-82.7c0-45.6,37-82.6,82.7-82.6c45.6,0,82.6,37,82.6,82.6c0.1,45.6-36.8,82.6-82.4,82.7
		C367,485.7,366.9,485.7,366.8,485.7z"/>
	<path class="st1" d="M139.8,226.6h172.4c5.1,0,9.3-4.2,9.3-9.3s-4.2-9.3-9.3-9.3H139.8c-5.1,0-9.3,4.2-9.3,9.3
		S134.6,226.6,139.8,226.6z"/>
	<path class="st1" d="M139.8,282h172.4c5.1,0,9.3-4.2,9.3-9.3s-4.2-9.3-9.3-9.3H139.8c-5.1,0-9.3,4.2-9.3,9.3S134.6,282,139.8,282z"
		/>
	<path class="st1" d="M139.8,337.4h98.5c5.1,0,9.3-4.2,9.3-9.3s-4.2-9.3-9.3-9.3h-98.5c-5.1,0-9.3,4.2-9.3,9.3
		S134.6,337.4,139.8,337.4z"/>
</g>
<g id="Labbilling" transform="translate(0 -280.067)" class="st0">
	<path id="path9636-4" vector-effect="none" class="st1" d="M74.6,287.7c-29.5,0-53.5,23.9-53.5,53.4V731c0,29.5,24,53.5,53.5,53.5
		h246.7c29.5,0,53.5-24,53.5-53.5c0-112.6,0-225.2,0-337.8c0-25.3,0.2-45.6,5.7-59.8c5.4-14,15-23.3,37.9-29.7h19.1
		c20.9,0,37.4,16.5,37.4,37.4v93.6c0,20.9-16.6,37.4-37.4,37.4h-42.1c-10.7,0-10.7,16,0,16h42.1c29.5,0,53.5-23.9,53.5-53.4v-93.6
		c0-29.5-24-53.4-53.5-53.4C316.5,287.7,195.5,287.7,74.6,287.7z M74.6,303.7h308.2c-8.1,6.7-13.7,14.8-17.3,23.9
		c-7.2,18.5-6.9,40.2-6.9,65.5V731c0,20.9-16.6,37.4-37.4,37.4H74.6c-20.9,0-37.4-16.6-37.4-37.4V341.1
		C37.1,320.2,53.7,303.7,74.6,303.7z M196,344.8c-14,0-25.6,11.5-25.6,25.5v6.4H164c-14,0-25.6,11.5-25.6,25.6v10.5
		c0,14,11.5,25.6,25.6,25.6h6.4v6.4c0,14,11.5,25.5,25.6,25.5h10.5c14,0,25.6-11.5,25.6-25.5v-6.4h6.4c14,0,25.5-11.5,25.5-25.6
		v-10.5c0-14-11.5-25.6-25.5-25.6H232v-6.4c0-14-11.5-25.5-25.6-25.5H196z M196,360.8h10.5c5.4,0,9.6,4.1,9.6,9.5v22.5h22.4
		c5.4,0,9.5,4.1,9.5,9.5v10.5c0,5.4-4.1,9.5-9.5,9.5H216v22.5c0,5.4-4.2,9.5-9.6,9.5H196c-5.4,0-9.5-4.1-9.5-9.5v-22.5H164
		c-5.4,0-9.6-4.1-9.6-9.5v-10.5c0-5.4,4.2-9.5,9.6-9.5h22.4v-22.5C186.4,364.9,190.5,360.8,196,360.8z M96,510.5
		c-10.9-0.3-10.9,20.7,0,20.4h203.2c10.9,0.3,10.9-20.7,0-20.4H96z M95.2,571.9c-10.4,1-9.6,21.6,0.8,21.2h109
		c10.9,0.3,10.9-21.5,0-21.2H96C95.7,571.9,95.5,571.9,95.2,571.9z M244.6,571.9c-10.4,1-9.6,21.6,0.8,21.2h53.8
		c10.9,0.3,10.9-21.5,0-21.2h-53.8C245.1,571.9,244.9,571.9,244.6,571.9z M284.4,637.4c-4.4,0.1-7.9,3.7-7.9,8.1v7.1
		c-0.2,0.1-0.3,0.1-0.5,0.1c-10.7,4.3-16.8,15.7-14.6,27c2.1,10.8,11.5,18.8,22.4,19.4c0.4,0.1,0.9,0.1,1.3,0.1c4.1,0,7.5,2.9,8,7
		c0.6,4.1-1.8,7.8-5.7,9c-3.9,1.2-8-0.7-9.7-4.4c-4.5-9.5-18.7-3-14.6,6.6c2.7,5.9,7.6,10.2,13.4,12.4v6.7c0.2,10.4,15.8,10.4,16,0
		v-6.2c11.1-3.6,18.2-14.7,16.6-26.4c-1.6-11.4-11.2-20-22.6-20.6c-0.5-0.1-0.9-0.1-1.4-0.1c-3.9,0-7.2-2.7-8-6.6
		c-0.8-3.9,1.3-7.6,4.9-9.1c3.7-1.5,7.7-0.2,9.9,3.1c5.8,9.2,19.5,0.3,13.4-8.7c-3.1-4.7-7.7-8.1-12.8-9.7v-6.7
		C292.6,640.9,288.9,637.3,284.4,637.4z M96.6,641.9c-11.8-0.3-11.8,19.6,0,19.3h58c11.8,0.3,11.8-19.6,0-19.3H96.6z"/>
</g>
<g id="manageent">
	<path d="M448.5,279v-16c4.4,0,8-3.6,8-8v-48.1c0-4.4-3.6-8-8-8h-43.3l-1.6-6c-3.5-13.8-9-26.9-16.3-39.1l-3.2-5.4l30.7-30.8
		c3.1-3.1,3.1-8.1,0-11.2l-34-34.1c-3.1-3-8.1-3-11.2,0l-30.8,30.8l-5.4-3.2c-12.2-7.3-25.4-12.8-39.2-16.3l-6-1.6V38.7
		c0-4.4-3.6-8-8-8h-48.1c-4.4,0-8,3.6-8,8V82l-6,1.6c-13.8,3.5-26.9,9-39.1,16.3l-5.4,3.2L143,72.3c-3.1-3-8.1-3-11.3,0l-34,34
		c-1.5,1.5-2.3,3.5-2.3,5.6c0,2.1,0.8,4.1,2.3,5.6l30.8,30.8l-3.2,5.4c-7.3,12.2-12.8,25.4-16.3,39.1l-1.6,6H64.1c-4.4,0-8,3.6-8,8
		V255c0,4.4,3.6,8,8,8v16c-13.3,0-24-10.8-24-24v-48.1c0-13.3,10.8-24,24-24h31c3.3-11.1,7.8-21.8,13.3-31.9l-22-22
		c-4.5-4.5-7-10.6-7-17s2.5-12.5,7-17l34-34c9.5-9.1,24.4-9.1,33.9,0l22,22c10.1-5.6,20.8-10,31.9-13.3v-31c0-13.3,10.8-24,24-24
		h48.1c13.3,0,24,10.8,24,24v31c11.1,3.3,21.8,7.8,31.9,13.3l22-22c9.5-9.1,24.4-9.1,33.9,0l34,34c4.5,4.5,7,10.6,7,17
		c0,6.4-2.5,12.5-7,17l-22,22c5.6,10.1,10,20.8,13.3,31.9h31c13.3,0,24,10.8,24,24V255C472.5,268.2,461.8,279,448.5,279z"/>
	<path d="M368.4,230.9h-16c0-53.1-43-96.1-96.1-96.1s-96.1,43-96.1,96.1h-16c0-61.9,50.2-112.1,112.1-112.1
		C318.2,118.8,368.4,169,368.4,230.9z"/>
	<path d="M256.3,295c-26.5,0-48.1-21.5-48.1-48.1c0-26.5,21.5-48.1,48.1-48.1c26.5,0,48.1,21.5,48.1,48.1
		C304.3,273.5,282.8,295,256.3,295z M256.3,214.9c-17.7,0-32,14.3-32,32s14.3,32,32,32s32-14.3,32-32S274,214.9,256.3,214.9z"/>
	<path d="M392.5,327.1c-26.5,0-48.1-21.5-48.1-48.1c0-26.5,21.5-48.1,48.1-48.1s48.1,21.5,48.1,48.1
		C440.5,305.5,419,327,392.5,327.1z M392.5,247c-17.7,0-32,14.3-32,32c0,17.7,14.3,32,32,32s32-14.3,32-32
		C424.5,261.3,410.1,247,392.5,247z"/>
	<path d="M120.1,327.1c-26.5,0-48.1-21.5-48.1-48.1c0-26.5,21.5-48.1,48.1-48.1c26.5,0,48.1,21.5,48.1,48.1
		C168.2,305.5,146.7,327,120.1,327.1z M120.1,247c-17.7,0-32,14.3-32,32c0,17.7,14.3,32,32,32s32-14.3,32-32
		C152.2,261.3,137.8,247,120.1,247z"/>
	<path d="M465.1,347.6c-11.9-8.2-26.1-12.6-40.6-12.5h-64.1c-3.9,0-7.8,0.4-11.6,1.1c-5.1-8-11.8-14.9-19.6-20.4
		c-1.2-0.9-2.4-1.7-3.7-2.4c-11.2-6.8-24.1-10.4-37.2-10.3h-64.1c-24.5-0.1-47.3,12.4-60.4,33.1c-3.8-0.7-7.7-1-11.6-1.1H88.1
		c-14.5,0-28.6,4.3-40.6,12.5C27.8,361,16,383.3,16,407.2v32c0,21.9,12.8,41.7,32.6,50.9c7.3,3.5,15.3,5.2,23.5,5.2h80.1v-16H80.1
		v-88.1h-16v87.3c-3-0.6-5.9-1.6-8.7-2.9C41.1,469,32.1,454.8,32,439.2v-32c0-18.6,9.2-35.9,24.6-46.3c9.3-6.4,20.3-9.8,31.5-9.7
		h64.1c1.4,0,2.8,0.2,4.1,0.2c-2.7,7.6-4.1,15.7-4.1,23.8v80.1c0,22.1,17.9,40,40,40h24V367.1h-16v112.1h-8c-13.3,0-24-10.8-24-24
		v-80.1c0-31,25.1-56.1,56.1-56.1h64.1c10.3,0,20.4,2.9,29.2,8.2c0.8,0.4,1.6,0.9,2.3,1.5c7.5,5.1,13.7,12,18,20
		c4.3,8.1,6.6,17.1,6.6,26.3v80.1c0,13.3-10.8,24-24,24h-8V367.1h-16v128.2h24c22.1,0,40-17.9,40-40v-80.1c0-8.1-1.4-16.1-4.1-23.8
		c1.4-0.1,2.7-0.2,4.1-0.2h64.1c11.3,0,22.3,3.4,31.5,9.7c15.3,10.4,24.5,27.8,24.5,46.3v32c0,15.7-9.2,29.9-23.5,36.4
		c-2.7,1.3-5.6,2.2-8.6,2.8v-87.3h-16v88.1h-72.1v16h80.1c8.1,0.1,16-1.7,23.3-5.1c19.9-9.1,32.7-29,32.8-51v-32
		C496.6,383.3,484.8,361,465.1,347.6z"/>
	<path d="M224.2,479.2h64.1v16h-64.1V479.2z"/>
</g>
<g class="st0">
	<path class="st1" d="M286.2,148.2h36.8v36.9c0,5,4.1,9.1,9.1,9.1h30c5,0,9.1-4.1,9.1-9.1v-36.9H408c5,0,9.1-4.1,9.1-9.1v-29.9
		c0-5-4.1-9.1-9.1-9.1h-36.8V63.3c0-5-4.1-9.1-9.1-9.1h-29.9c-5,0-9.1,4.1-9.1,9.1v36.8h-36.8c-5,0-9.1,4.1-9.1,9.1v29.9
		C277.2,144.1,281.3,148.2,286.2,148.2L286.2,148.2z M295.3,118.2h36.8c5,0,9.1-4.1,9.1-9.1V72.3H353v36.8c0,5,4.1,9.1,9.1,9.1h36.8
		V130h-36.8c-5,0-9.1,4.1-9.1,9.1V176h-11.8V139c0-5-4.1-9.1-9.1-9.1h-36.8L295.3,118.2L295.3,118.2z"/>
	<path class="st1" d="M452.4,495.3V15.5c0-5-4.1-9.1-9.1-9.1H68.7c-5,0-9.1,4.1-9.1,9.1v479.8c0,5,4.1,9.1,9.1,9.1h374.5
		C448.3,504.4,452.4,500.3,452.4,495.3z M434.2,486.3H79.9V24.6h354.2L434.2,486.3L434.2,486.3z"/>
	<path class="st1" d="M149.8,222.7h102.6c5.3,0,9.6-4.9,9.6-10.9c0-6-4.3-10.9-9.6-10.9H149.8c-5.3,0-9.6,4.9-9.6,10.9
		C140.3,217.8,144.6,222.7,149.8,222.7L149.8,222.7z"/>
	<path class="st1" d="M148.5,305.3h212.9c4.9,0,9-5.3,9-11.8c0-6.5-4-11.8-9-11.8H148.5c-4.9,0-9,5.3-9,11.8
		C139.6,300,143.6,305.3,148.5,305.3z"/>
	<path class="st1" d="M148.7,384.9h217c5,0,9.1-5,9.1-11c0-6.1-4.1-11-9.1-11h-217c-5,0-9.1,5-9.1,11
		C139.6,379.9,143.7,384.9,148.7,384.9z"/>
</g>
<g id="IPbilling" class="st0">
	<path class="st1" d="M257.3,111.1h80.2v16h-80.2V111.1z"/>
	<path class="st1" d="M257.3,143.2h80.2v16h-80.2V143.2z"/>
	<path class="st1" d="M257.3,175.3h80.2v16h-80.2V175.3z"/>
	<path class="st1" d="M257.3,207.4h80.2v16h-80.2V207.4z"/>
	<path class="st1" d="M168,125.7c5.9,1.9,12.2,1.9,18.1,0c2.9,10.3,12.3,17.5,23,17.5h8c4.4,0,8,3.6,8,8v24.1h16v-24.1
		c0-13.3-10.8-24.1-24.1-24.1h-8c-4.4,0-8-3.6-8-8v-3.1c5.1-5.8,8-13.3,8-21V79c0-17.7-14.4-32.1-32.1-32.1S144.9,61.3,144.9,79v16
		c0,7.7,2.9,15.2,8,21v3.1c0,4.4-3.6,8-8,8h-8c-13.3,0-24.1,10.8-24.1,24.1v24.1h16v-24.1c0-4.4,3.6-8,8-8h8
		C155.7,143.1,165.1,136,168,125.7z M161,79c0-8.9,7.2-16,16-16c8.9,0,16,7.2,16,16v16c0,8.9-7.2,16-16,16c-8.9,0-16-7.2-16-16V79z"
		/>
	<path class="st1" d="M265.3,95.1h64.2c4.4,0,8-3.6,8-8V54.9c0-4.4-3.6-8-8-8h-64.2c-4.4,0-8,3.6-8,8V87
		C257.3,91.5,260.9,95.1,265.3,95.1z M273.3,63h48.1v16h-48.1V63z"/>
	<path class="st1" d="M498,223.4c0-26.6-21.6-48.1-48.1-48.1h-48.1V54.9c0-4.4-3.6-8-8-8h-24.1V22.8c0-4.4-3.6-8-8-8H88.8
		c-4.4,0-8,3.6-8,8v176.5H56.7c-22.1,0-40.1,18-40.1,40.1v216.6c0,22.1,18,40.1,40.1,40.1h337c21.4-0.1,39-17,39.9-38.4l64.1-232.3
		C497.9,224.9,498,224.2,498,223.4z M385.7,63v176.5h-16V63H385.7z M96.8,30.9h256.8v208.6H196.4l-37.8-37.8
		c-1.5-1.5-3.5-2.4-5.7-2.4H96.8V30.9z M417.8,456.1c0,13.3-10.8,24.1-24.1,24.1h-337c-13.3,0-24.1-10.8-24.1-24.1V239.5
		c0-13.3,10.8-24.1,24.1-24.1h93l37.8,37.8c1.5,1.5,3.5,2.4,5.7,2.4h200.6c13.3,0,24.1,10.8,24.1,24.1V456.1z M433.8,396.9V279.6
		c0-19.1-13.4-35.5-32.1-39.3v-48.9h48.1c17.3,0,31.5,13.7,32.1,31.1L433.8,396.9z"/>
	<path class="st1" d="M305.4,327.7h-40.1v-40.1c0-4.4-3.6-8-8-8h-64.2c-4.4,0-8,3.6-8,8v40.1h-40.1c-4.4,0-8,3.6-8,8V400
		c0,4.4,3.6,8,8,8h40.1v40.1c0,4.4,3.6,8,8,8h64.2c4.4,0,8-3.6,8-8V408h40.1c4.4,0,8-3.6,8-8v-64.2
		C313.4,331.3,309.9,327.7,305.4,327.7z M297.4,391.9h-40.1c-4.4,0-8,3.6-8,8v40.1h-48.1V400c0-4.4-3.6-8-8-8H153v-48.1h40.1
		c4.4,0,8-3.6,8-8v-40.1h48.1v40.1c0,4.4,3.6,8,8,8h40.1V391.9z"/>
</g>
<g id="Speiality" transform="matrix(1.3333333,0,0,-1.3333333,0,682.66667)" class="st0">
	<g id="g2147" class="st1">
		<g>
			<defs>
				<rect id="SVGID_1_" x="-44.7" y="83.2" width="475.1" height="475.1"/>
			</defs>
			<clipPath id="SVGID_00000002358557166352634280000000693495313124109203_">
				<use xlink:href="#SVGID_1_"  style="overflow:visible;"/>
			</clipPath>
			<g id="g2149" style="clip-path:url(#SVGID_00000002358557166352634280000000693495313124109203_);">
				<g id="g2155" transform="translate(368.2256,320.1289)">
					<path id="path2157" class="st3" d="M-97.3,45.2V62c0,43.1-35,78.1-78.1,78.1c-41.3,0-75-32-77.9-72.5"/>
				</g>
				<g id="g2159" transform="translate(320.1289,392.2744)">
					<path id="path2161" class="st3" d="M-82.7,23.3c0,0-36.5-26.1-89.3-32.8c-3.1-0.4-5.5-3-5.5-6.2v0c0-6.2-5-11.2-11.2-11.2h-8.4
						c-8.2,0-14.7-7-13.9-15.4c0.7-7.3,7.4-12.5,14.7-12.5l7.6,0c0-33.9,27.5-61.4,61.4-61.4c33.9,0,61.4,27.5,61.4,61.4v0h8.4
						c8.2,0,14.7,7,13.9,15.4c-0.7,7.3-7.4,12.5-14.7,12.5h-7.6c-6.2,0-11.2,5-11.2,11.2v3.7c0,13.4-10.8,24.2-24.2,24.2h0"/>
				</g>
				<g id="g2163" transform="translate(320.1289,440.3711)">
					<path id="path2165" class="st3" d="M-82.7,8.7c0,24.6-20,44.6-44.6,44.6s-44.6-20-44.6-44.6"/>
				</g>
				<g id="g2167" transform="translate(215.9189,199.8867)">
					<path id="path2169" class="st3" d="M-51,81.8V59.3c0-6.7-4-12.7-10.1-15.4l-51-21.9c-10.3-4.4-16.9-14.5-16.9-25.6v-48.5"/>
				</g>
				<g id="g2171" transform="translate(296.0811,199.8867)">
					<path id="path2173" class="st3" d="M-75.4,81.8V59.3c0-6.7,4-12.7,10.1-15.4l51-21.9C-3.9,17.7,2.7,7.6,2.7-3.5v-48.5"/>
				</g>
				<g id="g2175" transform="translate(215.9189,304.0967)">
					<path id="path2177" class="st3" d="M-51,50.1v-5.6"/>
				</g>
				<g id="g2179" transform="translate(296.0811,304.0967)">
					<path id="path2181" class="st3" d="M-75.4,50.1v-5.6"/>
				</g>
				<g id="g2183" transform="translate(231.9512,256)">
					<path id="path2185" class="st3" d="M-55.9,64.7c4.1-3.4,10.1-5.6,16.7-5.6c6.7,0,12.6,2.2,16.7,5.6"/>
				</g>
				<g id="g2187" transform="translate(183.8545,135.7578)">
					<path id="path2189" class="st3" d="M-41.2,101.3L2.8,72c3.7-2.5,8.6-2.5,12.4,0l44,29.3"/>
				</g>
				<g id="g2191" transform="translate(151.79,7.5)">
					<path id="path2193" class="st3" d="M-31.5,140.3c-6.2,0-11.2,5-11.2,11.2v22.3c0,6.2,5,11.2,11.2,11.2h44.6
						c6.2,0,11.2-5,11.2-11.2v-22.3c0-6.2-5-11.2-11.2-11.2"/>
				</g>
				<g id="g2195" transform="translate(183.8545,71.6289)">
					<path id="path2197" class="st3" d="M-41.2,120.8v39"/>
				</g>
				<g id="g2199" transform="translate(328.1455,135.7578)">
					<path id="path2201" class="st3" d="M-85.1,101.3V45.5"/>
				</g>
				<g id="g2203" transform="translate(352.1934,31.5488)">
					<path id="path2205" class="st3" d="M-92.4,133c0-9.2-7.5-16.7-16.7-16.7c-9.2,0-16.7,7.5-16.7,16.7c0,9.2,7.5,16.7,16.7,16.7
						C-99.9,149.7-92.4,142.2-92.4,133z"/>
				</g>
				<g id="g2207" transform="translate(432.3545,175.8389)">
					<path id="path2209" class="st3" d="M-116.8,89.1L-116.8,89.1c-18.5,0-33.5,15-33.5,33.5v16.7c0,12.3,10,22.3,22.3,22.3h22.3
						c12.3,0,22.3-10,22.3-22.3v-16.7C-83.3,104.1-98.3,89.1-116.8,89.1z"/>
				</g>
				<g id="g2211" transform="translate(504.5,63.6133)">
					<path id="path2213" class="st3" d="M-138.8,123.2v42.2c0,4.8-3.1,9.1-7.6,10.6l-22,7.3c-2.3,0.8-3.8,2.9-3.8,5.3v16.6"/>
				</g>
				<g id="g2215" transform="translate(408.3066,181.4092)">
					<path id="path2217" class="st3" d="M-109.5,87.4V70.8c0-2.4-1.5-4.5-3.8-5.3l-7.3-2.4"/>
				</g>
				<g id="g2219" transform="translate(403.4062,149.4531)">
					<path id="path2221" class="st3" d="M-108,97.1l16.8-12.6c2-1.5,4.7-1.5,6.7,0l16.8,12.6"/>
				</g>
				<g id="g2223" transform="translate(79.6455,175.8389)">
					<path id="path2225" class="st3" d="M-9.6,89.1L-9.6,89.1c18.5,0,33.5,15,33.5,33.5v22.3c0,9.2-7.5,16.7-16.7,16.7h-33.5
						c-9.2,0-16.7-7.5-16.7-16.7v-22.3C-43,104.1-28,89.1-9.6,89.1z"/>
				</g>
				<g id="g2227" transform="translate(7.5,63.6133)">
					<path id="path2229" class="st3" d="M12.4,123.2v42.2c0,4.8,3.1,9.1,7.6,10.6l22,7.3c2.3,0.8,3.8,2.9,3.8,5.3v16.6"/>
				</g>
				<g id="g2231" transform="translate(103.6934,181.4092)">
					<path id="path2233" class="st3" d="M-16.9,87.4V70.8c0-2.4,1.5-4.5,3.8-5.3l7.3-2.4"/>
				</g>
				<g id="g2235" transform="translate(108.5938,149.4531)">
					<path id="path2237" class="st3" d="M-18.4,97.1l-16.8-12.6c-2-1.5-4.7-1.5-6.7,0l-16.8,12.6"/>
				</g>
				<g id="g2239" transform="translate(39.5645,63.6133)">
					<path id="path2241" class="st3" d="M2.6,123.2c-3.1,0-5.6,2.5-5.6,5.6V140c0,3.1,2.5,5.6,5.6,5.6h22.3c3.1,0,5.6-2.5,5.6-5.6
						v-11.2c0-3.1-2.5-5.6-5.6-5.6"/>
				</g>
				<g id="g2243" transform="translate(55.5967,95.6777)">
					<path id="path2245" class="st3" d="M-2.2,113.5V147"/>
				</g>
				<g id="g2247" transform="translate(464.4189,95.6777)">
					<path id="path2249" class="st3" d="M-126.6,113.5V147"/>
				</g>
				<g id="g2251" transform="translate(480.4512,79.6455)">
					<path id="path2253" class="st3" d="M-131.4,118.4c0,6.2-5,11.2-11.2,11.2c-6.2,0-11.2-5-11.2-11.2c0-6.2,5-11.2,11.2-11.2
						C-136.4,107.2-131.4,112.2-131.4,118.4z"/>
				</g>
				<g id="g2255" transform="translate(127.7422,231.9512)">
					<path id="path2257" class="st3" d="M-24.2,72c-20.8,0-35.3,9.3-41.4,14c-2,1.5-4.7,1.6-6.7,0L-91.1,72"/>
				</g>
			</g>
		</g>
	</g>
</g>
</svg>
